<mxfile host="app.diagrams.net" modified="2023-09-06T06:55:05.149Z" agent="Mozilla/5.0 (Windows NT 10.0; Win64; x64) AppleWebKit/537.36 (KHTML, like Gecko) Chrome/116.0.0.0 Safari/537.36 Edg/116.0.1938.54" etag="3EIyXIDQF-k2CnmsE0KS" version="21.7.2" type="device">
  <diagram id="dvXZC8SVZ1RsiuR10WeH" name="планирование">
    <mxGraphModel dx="586" dy="1028" grid="1" gridSize="10" guides="1" tooltips="1" connect="1" arrows="1" fold="1" page="1" pageScale="1" pageWidth="827" pageHeight="1169" math="0" shadow="0">
      <root>
        <mxCell id="0" />
        <mxCell id="1" parent="0" />
        <mxCell id="8kpzE0hYja5qCI00WkUM-1" value="" style="html=1;whiteSpace=wrap;" parent="1" vertex="1">
          <mxGeometry x="150" y="90" width="660" height="910" as="geometry" />
        </mxCell>
        <mxCell id="8kpzE0hYja5qCI00WkUM-2" value="Заведующая &lt;br&gt;бельевой&amp;nbsp;&lt;br&gt;отеля" style="shape=umlActor;verticalLabelPosition=bottom;verticalAlign=top;html=1;" parent="1" vertex="1">
          <mxGeometry x="70" y="525" width="30" height="60" as="geometry" />
        </mxCell>
        <mxCell id="8kpzE0hYja5qCI00WkUM-11" value="ПО &quot;Л-логистика&quot;" style="text;align=center;fontStyle=1;verticalAlign=middle;spacingLeft=3;spacingRight=3;strokeColor=none;rotatable=0;points=[[0,0.5],[1,0.5]];portConstraint=eastwest;html=1;" parent="1" vertex="1">
          <mxGeometry x="167" y="100" width="80" height="26" as="geometry" />
        </mxCell>
        <mxCell id="8kpzE0hYja5qCI00WkUM-13" value="" style="endArrow=open;startArrow=none;endFill=0;startFill=0;endSize=8;html=1;verticalAlign=bottom;labelBackgroundColor=none;strokeWidth=1;rounded=0;entryX=0.017;entryY=0.613;entryDx=0;entryDy=0;exitX=0.5;exitY=0.5;exitDx=0;exitDy=0;exitPerimeter=0;entryPerimeter=0;" parent="1" source="8kpzE0hYja5qCI00WkUM-2" target="EDS3QIrdJ-InaA9jhq3y-2" edge="1">
          <mxGeometry width="160" relative="1" as="geometry">
            <mxPoint x="140" y="550" as="sourcePoint" />
            <mxPoint x="200" y="200" as="targetPoint" />
          </mxGeometry>
        </mxCell>
        <mxCell id="8kpzE0hYja5qCI00WkUM-14" value="" style="endArrow=open;startArrow=none;endFill=0;startFill=0;endSize=8;html=1;verticalAlign=bottom;labelBackgroundColor=none;strokeWidth=1;rounded=0;entryX=0;entryY=0.5;entryDx=0;entryDy=0;exitX=0.5;exitY=0.5;exitDx=0;exitDy=0;exitPerimeter=0;" parent="1" source="8kpzE0hYja5qCI00WkUM-2" target="EDS3QIrdJ-InaA9jhq3y-5" edge="1">
          <mxGeometry width="160" relative="1" as="geometry">
            <mxPoint x="-130" y="740" as="sourcePoint" />
            <mxPoint x="200" y="425" as="targetPoint" />
          </mxGeometry>
        </mxCell>
        <mxCell id="8kpzE0hYja5qCI00WkUM-15" value="" style="endArrow=open;startArrow=none;endFill=0;startFill=0;endSize=8;html=1;verticalAlign=bottom;labelBackgroundColor=none;strokeWidth=1;rounded=0;exitX=0.5;exitY=0.5;exitDx=0;exitDy=0;exitPerimeter=0;entryX=0;entryY=0.5;entryDx=0;entryDy=0;" parent="1" source="8kpzE0hYja5qCI00WkUM-2" target="EDS3QIrdJ-InaA9jhq3y-6" edge="1">
          <mxGeometry width="160" relative="1" as="geometry">
            <mxPoint x="740" y="710" as="sourcePoint" />
            <mxPoint x="900" y="710" as="targetPoint" />
          </mxGeometry>
        </mxCell>
        <mxCell id="8kpzE0hYja5qCI00WkUM-18" value="" style="endArrow=open;startArrow=none;endFill=0;startFill=0;endSize=8;html=1;verticalAlign=bottom;labelBackgroundColor=none;strokeWidth=1;rounded=0;entryX=0.025;entryY=0.6;entryDx=0;entryDy=0;exitX=0.5;exitY=0.5;exitDx=0;exitDy=0;exitPerimeter=0;entryPerimeter=0;" parent="1" target="EDS3QIrdJ-InaA9jhq3y-7" edge="1" source="EDS3QIrdJ-InaA9jhq3y-1">
          <mxGeometry width="160" relative="1" as="geometry">
            <mxPoint x="85" y="560" as="sourcePoint" />
            <mxPoint x="200" y="953" as="targetPoint" />
          </mxGeometry>
        </mxCell>
        <mxCell id="8kpzE0hYja5qCI00WkUM-34" value="ПО &quot;О! Отель&quot;" style="shape=umlActor;verticalLabelPosition=bottom;verticalAlign=top;html=1;" parent="1" vertex="1">
          <mxGeometry x="868" y="476" width="30" height="60" as="geometry" />
        </mxCell>
        <mxCell id="8kpzE0hYja5qCI00WkUM-38" value="" style="endArrow=open;startArrow=none;endFill=0;startFill=0;endSize=8;html=1;verticalAlign=bottom;labelBackgroundColor=none;strokeWidth=1;rounded=0;exitX=0.5;exitY=0.617;exitDx=0;exitDy=0;exitPerimeter=0;entryX=1;entryY=0.5;entryDx=0;entryDy=0;" parent="1" source="8kpzE0hYja5qCI00WkUM-34" target="EDS3QIrdJ-InaA9jhq3y-4" edge="1">
          <mxGeometry width="160" relative="1" as="geometry">
            <mxPoint x="1135" y="720" as="sourcePoint" />
            <mxPoint x="1275" y="315" as="targetPoint" />
          </mxGeometry>
        </mxCell>
        <mxCell id="8kpzE0hYja5qCI00WkUM-39" value="" style="endArrow=open;startArrow=none;endFill=0;startFill=0;endSize=8;html=1;verticalAlign=bottom;labelBackgroundColor=none;strokeWidth=1;rounded=0;exitX=0;exitY=0.5;exitDx=0;exitDy=0;" parent="1" source="EDS3QIrdJ-InaA9jhq3y-3" target="EDS3QIrdJ-InaA9jhq3y-2" edge="1">
          <mxGeometry width="160" relative="1" as="geometry">
            <mxPoint x="850" y="690" as="sourcePoint" />
            <mxPoint x="1010" y="690" as="targetPoint" />
          </mxGeometry>
        </mxCell>
        <mxCell id="RRazJTa-_QNldFrpo8Uu-11" value="" style="endArrow=block;startArrow=none;endFill=0;startFill=0;endSize=8;html=1;verticalAlign=bottom;dashed=1;labelBackgroundColor=none;rounded=0;exitX=0.5;exitY=1;exitDx=0;exitDy=0;entryX=0.5;entryY=0;entryDx=0;entryDy=0;fontStyle=1" parent="1" source="EDS3QIrdJ-InaA9jhq3y-3" target="EDS3QIrdJ-InaA9jhq3y-4" edge="1">
          <mxGeometry width="160" relative="1" as="geometry">
            <mxPoint x="785" y="890" as="sourcePoint" />
            <mxPoint x="1259.04" y="346.68000000000006" as="targetPoint" />
          </mxGeometry>
        </mxCell>
        <mxCell id="RRazJTa-_QNldFrpo8Uu-12" value="include" style="text;strokeColor=none;fillColor=none;align=left;verticalAlign=top;spacingLeft=4;spacingRight=4;overflow=hidden;rotatable=0;points=[[0,0.5],[1,0.5]];portConstraint=eastwest;whiteSpace=wrap;html=1;" parent="1" vertex="1">
          <mxGeometry x="645" y="312" width="100" height="26" as="geometry" />
        </mxCell>
        <mxCell id="EDS3QIrdJ-InaA9jhq3y-1" value="Менеджер &lt;br&gt;отдела&lt;br&gt;логистики&amp;nbsp;&lt;br&gt;прачечной&lt;br&gt;сети" style="shape=umlActor;verticalLabelPosition=bottom;verticalAlign=top;html=1;" vertex="1" parent="1">
          <mxGeometry x="70" y="735" width="30" height="60" as="geometry" />
        </mxCell>
        <mxCell id="EDS3QIrdJ-InaA9jhq3y-2" value="Формирование предложения по плану доставки отеля" style="ellipse;whiteSpace=wrap;html=1;" vertex="1" parent="1">
          <mxGeometry x="280" y="150" width="120" height="80" as="geometry" />
        </mxCell>
        <mxCell id="EDS3QIrdJ-InaA9jhq3y-3" value="Предоставить расчет плана доставки по алгоритму&amp;nbsp;" style="ellipse;whiteSpace=wrap;html=1;" vertex="1" parent="1">
          <mxGeometry x="545" y="170" width="120" height="80" as="geometry" />
        </mxCell>
        <mxCell id="EDS3QIrdJ-InaA9jhq3y-4" value="Предоставить данные о бронированиях и услугах отеля" style="ellipse;whiteSpace=wrap;html=1;" vertex="1" parent="1">
          <mxGeometry x="625" y="470" width="120" height="80" as="geometry" />
        </mxCell>
        <mxCell id="EDS3QIrdJ-InaA9jhq3y-5" value="Корректировка предложения по плану доставки отеля" style="ellipse;whiteSpace=wrap;html=1;" vertex="1" parent="1">
          <mxGeometry x="358" y="285" width="120" height="80" as="geometry" />
        </mxCell>
        <mxCell id="EDS3QIrdJ-InaA9jhq3y-6" value="Направлеие предложения по плану доставки отеля" style="ellipse;whiteSpace=wrap;html=1;" vertex="1" parent="1">
          <mxGeometry x="280" y="410" width="120" height="80" as="geometry" />
        </mxCell>
        <mxCell id="EDS3QIrdJ-InaA9jhq3y-7" value="Ознакомиться с общим планом доставки сети отелей" style="ellipse;whiteSpace=wrap;html=1;" vertex="1" parent="1">
          <mxGeometry x="280" y="620" width="120" height="80" as="geometry" />
        </mxCell>
        <mxCell id="EDS3QIrdJ-InaA9jhq3y-9" value="" style="endArrow=block;startArrow=none;endFill=0;startFill=0;endSize=8;html=1;verticalAlign=bottom;dashed=1;labelBackgroundColor=none;rounded=0;exitX=0.5;exitY=0;exitDx=0;exitDy=0;fontStyle=1" edge="1" parent="1" source="EDS3QIrdJ-InaA9jhq3y-7" target="EDS3QIrdJ-InaA9jhq3y-6">
          <mxGeometry width="160" relative="1" as="geometry">
            <mxPoint x="960" y="188" as="sourcePoint" />
            <mxPoint x="1150" y="248" as="targetPoint" />
          </mxGeometry>
        </mxCell>
        <mxCell id="EDS3QIrdJ-InaA9jhq3y-10" value="include" style="text;strokeColor=none;fillColor=none;align=left;verticalAlign=top;spacingLeft=4;spacingRight=4;overflow=hidden;rotatable=0;points=[[0,0.5],[1,0.5]];portConstraint=eastwest;whiteSpace=wrap;html=1;" vertex="1" parent="1">
          <mxGeometry x="343" y="550" width="100" height="26" as="geometry" />
        </mxCell>
        <mxCell id="EDS3QIrdJ-InaA9jhq3y-12" value="Сформировать запрос на корректировку плана доставки отеля" style="ellipse;whiteSpace=wrap;html=1;" vertex="1" parent="1">
          <mxGeometry x="400" y="735" width="120" height="80" as="geometry" />
        </mxCell>
        <mxCell id="EDS3QIrdJ-InaA9jhq3y-13" value="" style="endArrow=open;startArrow=none;endFill=0;startFill=0;endSize=8;html=1;verticalAlign=bottom;labelBackgroundColor=none;strokeWidth=1;rounded=0;entryX=0;entryY=0.5;entryDx=0;entryDy=0;exitX=0.5;exitY=0.5;exitDx=0;exitDy=0;exitPerimeter=0;" edge="1" parent="1" source="EDS3QIrdJ-InaA9jhq3y-1" target="EDS3QIrdJ-InaA9jhq3y-12">
          <mxGeometry width="160" relative="1" as="geometry">
            <mxPoint x="400" y="917" as="sourcePoint" />
            <mxPoint x="598" y="820" as="targetPoint" />
          </mxGeometry>
        </mxCell>
        <mxCell id="EDS3QIrdJ-InaA9jhq3y-14" value="" style="endArrow=block;startArrow=none;endFill=0;startFill=0;endSize=8;html=1;verticalAlign=bottom;dashed=1;labelBackgroundColor=none;rounded=0;exitX=0.417;exitY=0.988;exitDx=0;exitDy=0;fontStyle=1;entryX=0.5;entryY=0;entryDx=0;entryDy=0;exitPerimeter=0;" edge="1" parent="1" source="EDS3QIrdJ-InaA9jhq3y-5" target="EDS3QIrdJ-InaA9jhq3y-12">
          <mxGeometry width="160" relative="1" as="geometry">
            <mxPoint x="610" y="540" as="sourcePoint" />
            <mxPoint x="610" y="410" as="targetPoint" />
          </mxGeometry>
        </mxCell>
        <mxCell id="EDS3QIrdJ-InaA9jhq3y-15" value="include" style="text;strokeColor=none;fillColor=none;align=left;verticalAlign=top;spacingLeft=4;spacingRight=4;overflow=hidden;rotatable=0;points=[[0,0.5],[1,0.5]];portConstraint=eastwest;whiteSpace=wrap;html=1;" vertex="1" parent="1">
          <mxGeometry x="460" y="510" width="100" height="26" as="geometry" />
        </mxCell>
        <mxCell id="EDS3QIrdJ-InaA9jhq3y-16" value="Утвердить общий план доставки сети отелей" style="ellipse;whiteSpace=wrap;html=1;" vertex="1" parent="1">
          <mxGeometry x="300" y="880" width="120" height="80" as="geometry" />
        </mxCell>
        <mxCell id="EDS3QIrdJ-InaA9jhq3y-17" value="" style="endArrow=open;startArrow=none;endFill=0;startFill=0;endSize=8;html=1;verticalAlign=bottom;labelBackgroundColor=none;strokeWidth=1;rounded=0;entryX=0.092;entryY=0.15;entryDx=0;entryDy=0;exitX=0.5;exitY=0.5;exitDx=0;exitDy=0;exitPerimeter=0;entryPerimeter=0;" edge="1" parent="1" source="EDS3QIrdJ-InaA9jhq3y-1" target="EDS3QIrdJ-InaA9jhq3y-16">
          <mxGeometry width="160" relative="1" as="geometry">
            <mxPoint x="90" y="770" as="sourcePoint" />
            <mxPoint x="410" y="802" as="targetPoint" />
          </mxGeometry>
        </mxCell>
      </root>
    </mxGraphModel>
  </diagram>
</mxfile>
